<?xml version="1.0" encoding="utf-8"?>
<!-- Generator: Adobe Illustrator 16.0.4, SVG Export Plug-In . SVG Version: 6.00 Build 0)  -->
<!DOCTYPE svg PUBLIC "-//W3C//DTD SVG 1.1//EN" "http://www.w3.org/Graphics/SVG/1.1/DTD/svg11.dtd">
<svg version="1.1" xmlns="http://www.w3.org/2000/svg" xmlns:xlink="http://www.w3.org/1999/xlink" x="0px" y="0px"
	 width="357.121px" height="267.121px" viewBox="0 0 357.121 267.121" enable-background="new 0 0 357.121 267.121"
	 xml:space="preserve">
<g id="Layer_2" display="none">
</g>
<g id="Layer_3">
</g>
<g id="Layer_1">
</g>
<g id="Layer_4">
	<g>
		<path fill="#FEE37E" d="M174.608,234.375c-5.849,0-11.697-3.506-15.192-9.351L110.275,140.8
			c-21.038-36.258-10.518-84.219,24.573-105.27c11.697-7.019,25.733-11.697,39.76-11.697c26.91,0,52.637,14.04,65.51,38.597
			c12.866,23.394,14.036,51.474,0,74.864v1.166l-50.29,87.724C186.306,230.869,180.46,234.375,174.608,234.375"/>
		<path fill="#FFFFFF" d="M174.608,129.109c-16.369,0-29.239-12.874-29.239-29.243c0-16.379,12.87-29.245,29.239-29.245
			c16.379,0,29.239,12.866,29.239,29.245C203.848,116.235,190.987,129.109,174.608,129.109"/>
	</g>
	<g>
		<path fill="#697733" d="M174.608,234.375c-5.849,0-11.697-3.506-15.192-9.351L110.275,140.8
			c-21.038-36.258-10.518-84.219,24.573-105.27c11.697-7.019,25.733-11.697,39.76-11.697c26.91,0,52.637,14.04,65.51,38.597
			c12.866,23.394,14.036,51.474,0,74.864v1.166l-50.29,87.724C186.306,230.869,180.46,234.375,174.608,234.375 M174.608,35.53
			c-11.697,0-23.394,3.506-33.911,9.351c-29.242,17.549-38.597,58.488-19.892,88.903l49.134,85.385
			c1.177,3.51,3.506,3.51,4.669,3.51c1.18,0,3.516,0,4.686-3.51l50.304-86.558v-1.166c11.7-19.885,11.7-44.448,0-64.33
			C219.063,48.396,198.003,35.53,174.608,35.53"/>
		<path fill="#697733" d="M174.608,129.109c-16.369,0-29.239-12.874-29.239-29.243c0-16.379,12.87-29.245,29.239-29.245
			c16.379,0,29.239,12.866,29.239,29.245C203.848,116.235,190.987,129.109,174.608,129.109 M174.608,82.317
			c-9.348,0-17.545,8.188-17.545,17.549c0,9.352,8.197,17.543,17.545,17.543c9.364,0,17.549-8.191,17.549-17.543
			C192.157,90.506,183.973,82.317,174.608,82.317"/>
	</g>
</g>
<g id="Layer_5">
</g>
</svg>
