<?xml version="1.0" encoding="utf-8"?>
<!-- Generator: Adobe Illustrator 16.0.4, SVG Export Plug-In . SVG Version: 6.00 Build 0)  -->
<!DOCTYPE svg PUBLIC "-//W3C//DTD SVG 1.1//EN" "http://www.w3.org/Graphics/SVG/1.1/DTD/svg11.dtd">
<svg version="1.1" xmlns="http://www.w3.org/2000/svg" xmlns:xlink="http://www.w3.org/1999/xlink" x="0px" y="0px"
	 width="357.121px" height="267.121px" viewBox="0 0 357.121 267.121" enable-background="new 0 0 357.121 267.121"
	 xml:space="preserve">
<g id="Layer_2" display="none">
</g>
<g id="Layer_3">
</g>
<g id="Layer_1">
</g>
<g id="Layer_4">
	<g>
		<g>
			<g>
				<g>
					<path fill="#FEE37E" d="M210.264,146.239c-9.404,0-18.81-4.03-25.532-10.742c-10.742-10.75-22.836-33.583,10.75-67.165
						c26.863-26.867,83.292-36.269,85.981-37.62c2.682,0,4.02,0,5.378,1.352c1.338,1.342,2.669,4.023,1.338,5.365
						c0,2.688-10.743,59.107-37.613,85.978C237.134,138.179,223.695,146.239,210.264,146.239"/>
				</g>
			</g>
			<g>
				<path fill="#FEE37E" d="M176.671,218.779h-13.432c0-28.215,9.419-57.764,26.863-88.661l12.095,6.717
					C184.731,165.049,176.671,193.254,176.671,218.779"/>
			</g>
			<g>
				<g>
					<path fill="#FEE37E" d="M137.721,130.118c-9.404,0-18.796-4.026-29.552-12.087C86.677,100.566,75.92,61.616,74.583,60.269
						c0-2.689,0-4.031,1.337-6.713c1.358-1.345,2.71-2.692,5.379-2.692c1.337,0,42.99,2.692,64.489,18.803
						c12.08,9.408,18.796,18.816,20.154,28.215c1.338,6.716-1.358,13.429-6.723,20.15
						C153.849,126.092,145.788,130.118,137.721,130.118"/>
				</g>
			</g>
			<g>
				<path fill="#FEE37E" d="M183.387,178.478h-13.432c0-20.147-6.716-40.299-22.829-59.104l10.742-8.063
					C173.989,132.805,183.387,155.645,183.387,178.478"/>
			</g>
			<g>
				<path fill="#FEE37E" d="M196.818,225.495h-52.375c-4.033,0-6.723-2.686-6.723-6.716c0-4.026,2.689-6.72,6.723-6.72h52.375
					c4.041,0,6.716,2.693,6.716,6.72C203.534,222.81,200.859,225.495,196.818,225.495"/>
			</g>
		</g>
	</g>
	<g>
		<path fill="#697733" d="M210.264,146.239c-9.404,0-18.81-4.03-25.532-10.742c-10.742-10.75-22.836-33.583,10.75-67.165
			c26.863-26.867,83.292-36.269,85.981-37.62c2.682,0,4.02,0,5.378,1.352c1.338,1.342,2.669,4.023,1.338,5.365
			c0,2.688-10.743,59.107-37.613,85.978C237.134,138.179,223.695,146.239,210.264,146.239 M274.74,45.492
			c-17.459,4.026-51.045,13.432-69.848,30.896c-20.161,20.147-22.843,36.271-10.749,48.358
			c13.432,13.432,29.552,9.405,48.355-10.746C259.971,96.536,270.713,61.616,274.74,45.492"/>
		<path fill="#697733" d="M176.671,218.779h-13.432c0-28.215,9.419-57.764,26.863-88.661l12.095,6.717
			C184.731,165.049,176.671,193.254,176.671,218.779"/>
		<path fill="#697733" d="M137.721,130.118c-9.404,0-18.796-4.026-29.552-12.087C86.677,100.566,75.92,61.616,74.583,60.269
			c0-2.689,0-4.031,1.337-6.713c1.358-1.345,2.71-2.692,5.379-2.692c1.337,0,42.99,2.692,64.489,18.803
			c12.08,9.408,18.796,18.816,20.154,28.215c1.338,6.716-1.358,13.429-6.723,20.15C153.849,126.092,145.788,130.118,137.721,130.118
			 M90.703,65.643c4.027,12.087,13.438,30.894,25.513,41.644c13.438,10.745,24.194,13.432,32.248,4.023
			c2.688-4.023,4.04-6.713,2.688-10.743c-1.345-5.371-5.364-12.084-14.783-20.144C125.641,71.018,104.142,66.983,90.703,65.643"/>
		<path fill="#697733" d="M183.387,178.478h-13.432c0-20.147-6.716-40.299-22.829-59.104l10.742-8.063
			C173.989,132.805,183.387,155.645,183.387,178.478"/>
		<path fill="#697733" d="M196.818,225.495h-52.375c-4.033,0-6.723-2.686-6.723-6.716c0-4.026,2.689-6.72,6.723-6.72h52.375
			c4.041,0,6.716,2.693,6.716,6.72C203.534,222.81,200.859,225.495,196.818,225.495"/>
	</g>
</g>
<g id="Layer_5">
</g>
</svg>
