<?xml version="1.0" encoding="utf-8"?>
<!-- Generator: Adobe Illustrator 16.0.4, SVG Export Plug-In . SVG Version: 6.00 Build 0)  -->
<!DOCTYPE svg PUBLIC "-//W3C//DTD SVG 1.1//EN" "http://www.w3.org/Graphics/SVG/1.1/DTD/svg11.dtd">
<svg version="1.1" xmlns="http://www.w3.org/2000/svg" xmlns:xlink="http://www.w3.org/1999/xlink" x="0px" y="0px"
	 width="357.121px" height="192.96px" viewBox="0 0 357.121 192.96" enable-background="new 0 0 357.121 192.96"
	 xml:space="preserve">
<g id="Layer_2" display="none">
</g>
<g id="Layer_3">
</g>
<g id="Layer_1">
	<polyline fill="#FEE37E" points="241.312,163.114 188.659,110.907 157.473,141.65 144.105,128.476 108.121,163.949 	"/>
	<polygon fill="#FFFFFF" points="188.492,110.161 175.695,122.329 183.616,127.306 188.185,122.329 193.989,127.306 
		200.666,122.951 	"/>
	<circle fill="#FEE37E" cx="106.543" cy="102.233" r="7.562"/>
	
		<polyline fill="none" stroke="#697733" stroke-width="1.8658" stroke-linecap="round" stroke-linejoin="round" stroke-miterlimit="10" points="
		219.848,140.406 188.659,109.663 157.473,140.406 144.105,127.231 108.121,162.705 	"/>
	
		<polygon fill="#FFFFFF" stroke="#697733" stroke-width="1.8658" stroke-linecap="round" stroke-linejoin="round" stroke-miterlimit="10" points="
		228.758,132.552 202.025,163.297 255.491,163.297 	"/>
	
		<polyline fill="none" stroke="#697733" stroke-width="1.8658" stroke-linecap="round" stroke-linejoin="round" stroke-miterlimit="10" points="
		175.295,122.839 184.205,127.231 188.659,122.839 193.115,127.231 202.025,122.839 	"/>
	
		<line fill="none" stroke="#697733" stroke-width="1.8658" stroke-linecap="round" stroke-linejoin="round" stroke-miterlimit="10" x1="97.71" y1="163.333" x2="261.281" y2="163.333"/>
	
		<circle fill="none" stroke="#697733" stroke-width="1.8658" stroke-linecap="round" stroke-linejoin="round" stroke-miterlimit="10" cx="106.1" cy="101.584" r="7.562"/>
	
		<line fill="none" stroke="#697733" stroke-width="1.8658" stroke-linecap="round" stroke-linejoin="round" stroke-miterlimit="10" x1="106.1" y1="68.329" x2="106.1" y2="85.658"/>
	
		<line fill="none" stroke="#697733" stroke-width="1.8658" stroke-linecap="round" stroke-linejoin="round" stroke-miterlimit="10" x1="123.734" y1="86.674" x2="118.832" y2="91.574"/>
	
		<line fill="none" stroke="#697733" stroke-width="1.8658" stroke-linecap="round" stroke-linejoin="round" stroke-miterlimit="10" x1="106.1" y1="116.851" x2="106.1" y2="134.18"/>
	
		<line fill="none" stroke="#697733" stroke-width="1.8658" stroke-linecap="round" stroke-linejoin="round" stroke-miterlimit="10" x1="72.844" y1="101.584" x2="90.173" y2="101.584"/>
	
		<line fill="none" stroke="#697733" stroke-width="1.8658" stroke-linecap="round" stroke-linejoin="round" stroke-miterlimit="10" x1="121.365" y1="101.584" x2="138.694" y2="101.584"/>
	
		<line fill="none" stroke="#697733" stroke-width="1.8658" stroke-linecap="round" stroke-linejoin="round" stroke-miterlimit="10" x1="96.006" y1="114.895" x2="91.106" y2="119.796"/>
	
		<line fill="none" stroke="#697733" stroke-width="1.8658" stroke-linecap="round" stroke-linejoin="round" stroke-miterlimit="10" x1="90.363" y1="86.92" x2="95.264" y2="91.822"/>
	
		<line fill="none" stroke="#697733" stroke-width="1.8658" stroke-linecap="round" stroke-linejoin="round" stroke-miterlimit="10" x1="118.585" y1="114.647" x2="123.486" y2="119.549"/>
	
		<line fill="none" stroke="#697733" stroke-width="1.8658" stroke-linecap="round" stroke-linejoin="round" stroke-miterlimit="10" x1="281.806" y1="163.333" x2="267.501" y2="163.333"/>
	
		<line fill="none" stroke="#697733" stroke-width="1.8658" stroke-linecap="round" stroke-linejoin="round" stroke-miterlimit="10" x1="85.893" y1="163.333" x2="92.734" y2="163.333"/>
</g>
<g id="Layer_4">
</g>
<g id="Layer_5">
</g>
</svg>
