<?xml version="1.0" encoding="utf-8"?>
<!-- Generator: Adobe Illustrator 16.0.4, SVG Export Plug-In . SVG Version: 6.00 Build 0)  -->
<!DOCTYPE svg PUBLIC "-//W3C//DTD SVG 1.1//EN" "http://www.w3.org/Graphics/SVG/1.1/DTD/svg11.dtd">
<svg version="1.1" xmlns="http://www.w3.org/2000/svg" xmlns:xlink="http://www.w3.org/1999/xlink" x="0px" y="0px"
	 width="356.982px" height="192.805px" viewBox="0 0 356.982 192.805" enable-background="new 0 0 356.982 192.805"
	 xml:space="preserve">
<g id="Layer_2" display="none">
</g>
<g id="Layer_3">
</g>
<g id="Layer_1">
	<polygon fill="#FEE37E" points="151.08,162.028 238.844,162.028 225.47,150.326 213.768,150.326 195.379,117.728 201.23,111.877 
		186.603,114.385 176.154,112.294 171.14,113.547 159.438,111.877 164.662,117.102 131.855,161.817 	"/>
	
		<polygon fill="none" stroke="#697733" stroke-width="1.8658" stroke-linecap="round" stroke-linejoin="round" stroke-miterlimit="10" points="
		150.873,161.614 238.637,161.614 225.263,149.912 213.561,149.912 195.172,117.313 201.023,111.462 186.396,113.97 175.947,111.88 
		170.933,113.133 159.23,111.462 164.455,116.687 131.648,161.403 	"/>
	
		<path fill="none" stroke="#697733" stroke-width="1.8658" stroke-linecap="round" stroke-linejoin="round" stroke-miterlimit="10" d="
		M139.296,83.937c9.262,0,13.893,9.262,13.893,9.262H96.369H82.476c0,0,0-13.894,13.894-13.894c0,0,10.698-26.381,27.085-5.623
		c0,0,11.471-13.657,20.757,4.368c0,0,14.204-6.555,15.843,9.286"/>
	
		<circle fill="#FFFFFF" stroke="#697733" stroke-width="1.8658" stroke-linecap="round" stroke-linejoin="round" stroke-miterlimit="10" cx="123.782" cy="104.794" r="20.635"/>
	
		<circle fill="#FFFFFF" stroke="#697733" stroke-width="1.6615" stroke-linecap="round" stroke-linejoin="round" stroke-miterlimit="10" cx="123.781" cy="104.794" r="17.196"/>
	<path fill="#FEE37E" d="M127.023,96.529c0,1.571-1.275,2.848-2.85,2.848s-2.849-1.276-2.849-2.848c0-1.576,2.849-4.276,2.849-4.276
		S127.023,94.953,127.023,96.529z"/>
	<path fill="#FEE37E" d="M124.174,110.775c0,2.362-1.913,4.275-4.275,4.275c-2.36,0-4.272-1.913-4.272-4.275
		c0-2.359,4.272-6.411,4.272-6.411S124.174,108.416,124.174,110.775z"/>
	<path fill="#FEE37E" d="M136.143,108.354c0,1.73-1.404,3.134-3.134,3.134c-1.732,0-3.136-1.403-3.136-3.134
		c0-1.731,3.136-4.703,3.136-4.703S136.143,106.623,136.143,108.354z"/>
	
		<rect x="83.579" y="128.818" transform="matrix(-0.7071 0.7071 -0.7071 -0.7071 259.6819 156.9537)" fill="#FEE37E" width="27.514" height="6.878"/>
	
		<polygon fill="#FFFFFF" stroke="#697733" stroke-width="1.8658" stroke-linecap="round" stroke-linejoin="round" stroke-miterlimit="10" points="
		132.865,141.553 157.308,161.496 108.425,161.496 	"/>
	
		<line fill="none" stroke="#697733" stroke-width="1.8658" stroke-linecap="round" stroke-linejoin="round" stroke-miterlimit="10" x1="190.576" y1="120.865" x2="193.083" y2="125.461"/>
	
		<line fill="#FFFFFF" stroke="#697733" stroke-width="1.8658" stroke-linecap="round" stroke-linejoin="round" stroke-miterlimit="10" x1="184.489" y1="120.865" x2="186.161" y2="130.895"/>
	
		<line fill="#FFFFFF" stroke="#697733" stroke-width="1.8658" stroke-linecap="round" stroke-linejoin="round" stroke-miterlimit="10" x1="178.821" y1="120.865" x2="178.821" y2="125.67"/>
	
		<line fill="#FFFFFF" stroke="#697733" stroke-width="1.8658" stroke-linecap="round" stroke-linejoin="round" stroke-miterlimit="10" x1="173.258" y1="120.865" x2="171.378" y2="131.523"/>
	
		<line fill="#FFFFFF" stroke="#697733" stroke-width="1.8658" stroke-linecap="round" stroke-linejoin="round" stroke-miterlimit="10" x1="166.962" y1="120.865" x2="164.663" y2="126.508"/>
	
		<path fill="none" stroke="#697733" stroke-width="1.8658" stroke-linecap="round" stroke-linejoin="round" stroke-miterlimit="10" d="
		M174.38,106.551v-4.368c0,0,0-4.627,5.643-4.627c4.388,0,2.978,0,2.978,0s5.8-0.514,5.8-4.756c0-5.524-6.27-5.14-6.27-5.14h-6.504
		c0,0-5.406-0.257-5.406-4.434"/>
	
		<line fill="none" stroke="#697733" stroke-width="2.587" stroke-linecap="round" stroke-linejoin="round" stroke-miterlimit="10" x1="170.62" y1="78.279" x2="170.62" y2="74.422"/>
	
		<path fill="none" stroke="#697733" stroke-width="1.8658" stroke-linecap="round" stroke-linejoin="round" stroke-miterlimit="10" d="
		M187.763,109.529v-5.486c0,0-0.061-4.543,4.545-4.543c5.486,0,5.956-0.942,5.956-6.583"/>
	
		<line fill="none" stroke="#697733" stroke-width="2.587" stroke-linecap="round" stroke-linejoin="round" stroke-miterlimit="10" x1="170.776" y1="69.722" x2="170.776" y2="67.841"/>
	
		<line fill="none" stroke="#697733" stroke-width="2.587" stroke-linecap="round" stroke-linejoin="round" stroke-miterlimit="10" x1="198.673" y1="88.998" x2="198.673" y2="82.886"/>
	
		<rect x="105.446" y="118.927" transform="matrix(0.7069 -0.7073 0.7073 0.7069 -54.162 111.7363)" fill="none" stroke="#697733" stroke-width="2.3261" stroke-linecap="round" stroke-linejoin="round" stroke-miterlimit="10" width="4.587" height="4.585"/>
	
		<rect x="82.634" y="129.13" transform="matrix(-0.7071 0.7071 -0.7071 -0.7071 258.2883 158.1559)" fill="none" stroke="#697733" stroke-width="1.8658" stroke-linecap="round" stroke-linejoin="round" stroke-miterlimit="10" width="27.513" height="6.879"/>
	
		<path fill="none" stroke="#697733" stroke-width="2.065" stroke-linecap="round" stroke-linejoin="round" stroke-miterlimit="10" d="
		M126.304,97.124c0,1.572-1.275,2.849-2.85,2.849s-2.849-1.276-2.849-2.849c0-1.576,2.849-4.276,2.849-4.276
		S126.304,95.548,126.304,97.124z"/>
	
		<path fill="none" stroke="#697733" stroke-width="2.065" stroke-linecap="round" stroke-linejoin="round" stroke-miterlimit="10" d="
		M123.454,111.371c0,2.361-1.914,4.274-4.275,4.274c-2.359,0-4.272-1.913-4.272-4.274c0-2.359,4.272-6.412,4.272-6.412
		S123.454,109.012,123.454,111.371z"/>
	
		<path fill="none" stroke="#697733" stroke-width="2.065" stroke-linecap="round" stroke-linejoin="round" stroke-miterlimit="10" d="
		M135.423,108.949c0,1.731-1.404,3.135-3.135,3.135c-1.731,0-3.135-1.403-3.135-3.135s3.135-4.702,3.135-4.702
		S135.423,107.218,135.423,108.949z"/>
	
		<line fill="none" stroke="#697733" stroke-width="1.8658" stroke-linecap="round" stroke-linejoin="round" stroke-miterlimit="10" x1="79.426" y1="161.951" x2="243.667" y2="161.951"/>
	
		<line fill="none" stroke="#697733" stroke-width="1.8658" stroke-linecap="round" stroke-linejoin="round" stroke-miterlimit="10" x1="73.876" y1="161.951" x2="59.571" y2="161.951"/>
	
		<line fill="none" stroke="#697733" stroke-width="1.8658" stroke-linecap="round" stroke-linejoin="round" stroke-miterlimit="10" x1="248.021" y1="161.951" x2="254.862" y2="161.951"/>
	
		<line fill="none" stroke="#697733" stroke-width="1.8658" stroke-linecap="round" stroke-linejoin="round" stroke-miterlimit="10" x1="260.46" y1="161.951" x2="273.521" y2="161.951"/>
</g>
<g id="Layer_4">
</g>
<g id="Layer_5">
</g>
</svg>
