<?xml version="1.0" encoding="utf-8"?>
<!-- Generator: Adobe Illustrator 16.0.4, SVG Export Plug-In . SVG Version: 6.00 Build 0)  -->
<!DOCTYPE svg PUBLIC "-//W3C//DTD SVG 1.1//EN" "http://www.w3.org/Graphics/SVG/1.1/DTD/svg11.dtd">
<svg version="1.1" xmlns="http://www.w3.org/2000/svg" xmlns:xlink="http://www.w3.org/1999/xlink" x="0px" y="0px"
	 width="357.121px" height="187.2px" viewBox="0 0 357.121 187.2" enable-background="new 0 0 357.121 187.2" xml:space="preserve">
<g id="Layer_2" display="none">
</g>
<g id="Layer_3">
</g>
<g id="Layer_1">
	<polygon fill="#FEE37E" points="213.736,104.9 206.6,122.74 206.6,99.137 199.465,99.137 199.465,156.223 206.6,156.223 
		206.6,129.877 217.303,104.9 	"/>
	
		<line fill="none" stroke="#697733" stroke-width="1.8658" stroke-linecap="round" stroke-linejoin="round" stroke-miterlimit="10" x1="133.95" y1="156.197" x2="230.283" y2="156.197"/>
	<polygon fill="#FEE37E" points="159.595,123.052 159.595,140.891 152.459,123.052 148.889,123.052 159.595,148.027 
		159.595,180.139 166.73,180.139 166.73,123.052 	"/>
	
		<rect x="142.066" y="99.137" fill="#FFFFFF" stroke="#697733" stroke-width="1.8658" stroke-linecap="round" stroke-linejoin="round" stroke-miterlimit="10" width="7.134" height="57.086"/>
	<path fill="#FEE37E" d="M168.047,99.988c1.605-2.101,2.562-4.727,2.562-7.575c0-6.897-5.591-12.488-12.487-12.488
		c-2.011,0-3.909,0.478-5.59,1.321c-1.034-4.832-5.327-8.456-10.466-8.456c-5.913,0-10.704,4.792-10.704,10.704
		c0,0.158,0.004,0.316,0.013,0.475c-1.035-0.302-2.222-0.475-3.582-0.475c-10.702,0-10.702,10.702-10.702,10.702s-8.92,0-8.92,8.921
		c0,8.92,8.92,8.92,8.92,8.92h60.654C177.745,112.037,174.926,102.192,168.047,99.988z"/>
	
		<path fill="none" stroke="#697733" stroke-width="1.8658" stroke-linecap="round" stroke-linejoin="round" stroke-miterlimit="10" d="
		M168.047,99.988c1.605-2.101,2.562-4.727,2.562-7.575c0-6.897-5.591-12.488-12.487-12.488c-2.011,0-3.909,0.478-5.59,1.321
		c-1.034-4.832-5.327-8.456-10.466-8.456c-5.913,0-10.704,4.792-10.704,10.704c0,0.158,0.004,0.316,0.013,0.475
		c-1.035-0.302-2.222-0.475-3.582-0.475c-10.702,0-10.702,10.702-10.702,10.702s-8.92,0-8.92,8.921c0,8.92,8.92,8.92,8.92,8.92
		h60.654C177.745,112.037,174.926,102.192,168.047,99.988z"/>
	
		<polygon fill="none" stroke="#697733" stroke-width="1.8658" stroke-linecap="round" stroke-linejoin="round" stroke-miterlimit="10" points="
		213.426,104.9 206.288,122.74 206.288,99.137 199.153,99.137 199.153,156.223 206.288,156.223 206.288,129.877 216.992,104.9 	"/>
	
		<rect x="177.745" y="108.47" fill="#FFFFFF" stroke="#697733" stroke-width="1.8658" stroke-linecap="round" stroke-linejoin="round" stroke-miterlimit="10" width="7.138" height="57.086"/>
	
		<path fill="#FFFFFF" stroke="#697733" stroke-width="1.8658" stroke-linecap="round" stroke-linejoin="round" stroke-miterlimit="10" d="
		M231.79,89.419l-0.142-0.056c0.092-0.661,0.142-1.336,0.142-2.023c0-8.036-4.094-18.242-18.241-18.242
		c-14.396,0-16.449,6.228-19.065,10.089l-2.497-0.161c-12.473-2.078-12.473,10.394-12.473,10.394
		c-12.473,0-12.473,12.471-12.473,12.471h39.806c0,0,0,10.394,10.394,10.394c10.393,0,10.393-10.394,10.393-10.394
		S235.948,97.733,231.79,89.419z"/>
	
		<polygon fill="none" stroke="#697733" stroke-width="1.8658" stroke-linecap="round" stroke-linejoin="round" stroke-miterlimit="10" points="
		159.905,122.74 159.905,140.579 152.77,122.74 149.2,122.74 159.905,147.716 159.905,179.828 167.041,179.828 167.041,122.74 	"/>
	
		<path fill="#FFFFFF" stroke="#697733" stroke-width="1.8658" stroke-linecap="round" stroke-linejoin="round" stroke-miterlimit="10" d="
		M134.93,126.309h53.987c0,0,6.668,0,6.668-6.667c0-6.668-6.668-6.668-6.668-6.668s0-8.001-8-8.001
		c-1.016,0-1.901,0.129-2.677,0.355c0.006-0.118,0.01-0.236,0.01-0.355c0-4.419-3.583-8.001-8.002-8.001
		c-3.841,0-7.051,2.709-7.823,6.321c-1.256-0.63-2.674-0.986-4.177-0.986c-5.154,0-9.335,4.179-9.335,9.334
		c0,2.129-6.847-3.171-10.415,5.663C133.355,118.949,134.93,126.309,134.93,126.309z"/>
	
		<line fill="none" stroke="#697733" stroke-width="1.8658" stroke-linecap="round" stroke-linejoin="round" stroke-miterlimit="10" x1="262" y1="156.197" x2="255.159" y2="156.197"/>
	
		<line fill="none" stroke="#697733" stroke-width="1.8658" stroke-linecap="round" stroke-linejoin="round" stroke-miterlimit="10" x1="249.562" y1="156.197" x2="236.501" y2="156.197"/>
	
		<line fill="none" stroke="#697733" stroke-width="1.8658" stroke-linecap="round" stroke-linejoin="round" stroke-miterlimit="10" x1="127.66" y1="156.197" x2="120.818" y2="156.197"/>
</g>
<g id="Layer_4">
</g>
<g id="Layer_5">
</g>
</svg>
